<?xml version="1.0" encoding="utf-8"?>
<!-- Generator: Adobe Illustrator 16.0.0, SVG Export Plug-In . SVG Version: 6.00 Build 0)  -->
<!DOCTYPE svg PUBLIC "-//W3C//DTD SVG 1.1//EN" "http://www.w3.org/Graphics/SVG/1.1/DTD/svg11.dtd">
<svg version="1.1" id="Layer_1" xmlns="http://www.w3.org/2000/svg" xmlns:xlink="http://www.w3.org/1999/xlink" x="0px" y="0px"
	 width="479.2px" height="435.3px" viewBox="0 0 479.2 435.3" enable-background="new 0 0 479.2 435.3" xml:space="preserve">
<g transform="translate(-81.712002,-173.418)">
	<path  d="M314.6,178.5l6.4,98.6l6.5-98.6H314.6z M159.7,242.7l-9.2,9.1l74.3,65.2L159.7,242.7z M482.3,242.7
		l-65.1,74.3l74.3-65.2L482.3,242.7z M321.1,308.3c-3.3,0-6.6,0.1-10,0.5c-39.7,4.4-71.9,36.6-76.5,76.2c-2.5,21.7,3,42,14,58.4
		c15.4,23,25,49.3,25,76.9v1.7h94.9v-1.7c0-27.6,9.7-53.9,25-76.8c9.2-13.8,14.6-30.3,14.6-48.2
		C408.2,347.2,369.2,308.3,321.1,308.3L321.1,308.3z M321,317.5c42.9,0,77.8,34.9,77.8,77.8c0,15.4-4.5,30.3-13,43
		c-15.8,23.6-24.8,49.3-26.3,74.6h-27.2l17.8-81.4c2.4-0.3,4.5-2.1,5-4.5c0.7-3.2-1.4-6.2-4.5-6.9c-3.2-0.7-6.2,1.3-6.9,4.4
		c-0.2,1-0.1,2,0.2,2.9l-1.6,4l-7.1-18.1l-7.1,18.1l-7.1-18.2l-7,18.2l-7.1-18.2l-7.1,18.2l-1.5-3.9c0.3-0.9,0.5-2,0.2-3
		c-0.7-3.2-3.8-5.1-6.9-4.4c-3.1,0.7-5.1,3.8-4.4,6.9c0.5,2.5,2.5,4.2,5,4.5l17.8,81.4h-27.2c-1.5-25.2-10.6-50.9-26.4-74.6
		c-10.3-15.4-14.6-33.5-12.4-52.3c4.1-35.5,32.8-64.1,68.3-68C315,317.7,318,317.5,321,317.5z M86.5,406.7v12.8l98.5-6.4L86.5,406.7
		z M555.5,406.7l-98.6,6.4l98.6,6.4V406.7z M306.9,419.5l7,18.2l7-18.2l7.2,18.2l7.1-18.2l7.1,18.2l3-7.9c0.3,0.3,0.6,0.5,0.9,0.8
		l-17.9,82.3h-14.5l-18-82.3c0.4-0.2,0.6-0.5,0.9-0.8l3.1,7.9L306.9,419.5z M273,531.4v25.1h96.1v-25.1H273z M273.1,565.8
		c0,18.3,21.4,33.1,47.9,33.1c26.5,0,48.1-14.8,48.1-33.1H273.1L273.1,565.8z"/>
</g>
</svg>
